<?xml version="1.0" encoding="utf-8"?>
<!-- Generator: Adobe Illustrator 19.2.1, SVG Export Plug-In . SVG Version: 6.00 Build 0)  -->
<svg version="1.1" id="Layer_1" xmlns="http://www.w3.org/2000/svg" xmlns:xlink="http://www.w3.org/1999/xlink" x="0px" y="0px"
	 viewBox="0 0 14 18.3" style="enable-background:new 0 0 14 18.3;" xml:space="preserve">
<style type="text/css">
	.st0{fill:#555555;}
</style>
<title>icon-map</title>
<path class="st0" d="M7,0C3.2,0,0,3.2,0,7c0,2.6,1.2,5.3,3.4,8c1,1.2,2.2,2.3,3.4,3.2c0.1,0.1,0.3,0.1,0.4,0c1.2-1,2.4-2,3.4-3.2
	c2.2-2.6,3.4-5.4,3.4-8C14,3.2,10.8,0,7,0z M7,11.3c-2.4,0-4.3-1.9-4.3-4.3c0-2.4,1.9-4.3,4.3-4.3s4.3,1.9,4.3,4.3l0,0
	C11.3,9.4,9.4,11.3,7,11.3z"/>
</svg>
