<svg id="Layer_1" data-name="Layer 1" xmlns="http://www.w3.org/2000/svg" viewBox="0 0 17.67 14"><defs><style>.cls-1{fill:#5d5d5d;}</style></defs><title>icon-refresh</title><path class="cls-1" d="M1192.33,3637.73l-1.78-3.08a0.74,0.74,0,0,0-.1-0.14,0.73,0.73,0,0,0-.48-0.24,0.75,0.75,0,0,0-.63.26l-2.37,2.82a0.74,0.74,0,0,0,1.13.95l1.07-1.28a5.77,5.77,0,0,1-4.27,4.45,5.5,5.5,0,0,1-5.15-1.46,0.74,0.74,0,0,0-1,1,7,7,0,0,0,4.91,2,7.06,7.06,0,0,0,1.61-.19,7.29,7.29,0,0,0,5.31-5.31l0.51,0.88a0.74,0.74,0,0,0,.64.37,0.73,0.73,0,0,0,.37-0.1A0.74,0.74,0,0,0,1192.33,3637.73Z" transform="translate(-1174.76 -3629.09)"/><path class="cls-1" d="M1180.22,3634.54a0.74,0.74,0,0,0-1,.09l-1.27,1.51a5.56,5.56,0,0,1,.8-2.72,5.88,5.88,0,0,1,3.67-2.71,5.52,5.52,0,0,1,5.41,1.73,0.74,0.74,0,1,0,1.1-1,7,7,0,0,0-6.85-2.19,7.37,7.37,0,0,0-4.6,3.38,7.1,7.1,0,0,0-.91,2.44l-0.42-.69a0.74,0.74,0,0,0-1.26.76l1.89,3.14a0.73,0.73,0,0,0,.57.36h0.06a0.74,0.74,0,0,0,.56-0.26l2.36-2.82A0.74,0.74,0,0,0,1180.22,3634.54Z" transform="translate(-1174.76 -3629.09)"/></svg>