<svg id="Layer_1" data-name="Layer 1" xmlns="http://www.w3.org/2000/svg" viewBox="0 0 41 41"><defs><style>.cls-1{fill:#2189ce;stroke:#efefef;stroke-miterlimit:10;}.cls-2{fill:#fff;}</style></defs><title>icon-sub-map</title><rect class="cls-1" x="0.5" y="0.5" width="40" height="40"/><path class="cls-2" d="M740.27,3620.12a8.68,8.68,0,0,0-8.57,8.57c0,3.13,1.45,6.5,4.18,9.74a26.43,26.43,0,0,0,4.16,4,0.37,0.37,0,0,0,.44,0,26.42,26.42,0,0,0,4.16-4c2.74-3.24,4.18-6.6,4.18-9.74A8.68,8.68,0,0,0,740.27,3620.12Zm0,13.78a5.21,5.21,0,1,1,5.21-5.21A5.22,5.22,0,0,1,740.27,3633.9Z" transform="translate(-719.18 -3610.21)"/></svg>