<svg id="Layer_1" data-name="Layer 1" xmlns="http://www.w3.org/2000/svg" viewBox="0 0 41 41"><defs><style>.cls-1,.cls-3,.cls-4{fill:#2189ce;}.cls-1{stroke:#efefef;}.cls-1,.cls-3{stroke-miterlimit:10;}.cls-2{fill:#fff;}.cls-3{stroke:#fff;stroke-width:0.5px;}</style></defs><title>iconn-sub-savings</title><rect class="cls-1" x="0.5" y="0.5" width="40" height="40"/><rect class="cls-2" x="12.67" y="12.7" width="15.67" height="19.67"/><rect class="cls-2" x="11.73" y="8.16" width="17.53" height="3.83"/><polyline class="cls-3" points="13.68 29.5 13.68 15.82 27.78 15.82"/><path class="cls-2" d="M805.79,3640.7a3.79,3.79,0,0,0-3.73-3.82l-3.28,0h0l-3.73,0a3.78,3.78,0,0,0-.09,7.55l3.62,0h0l3.39,0A3.78,3.78,0,0,0,805.79,3640.7ZM795,3643.82a3.24,3.24,0,0,1,.07-6.47l3.24,0-0.07,6.47Zm8.94-2.87a0.27,0.27,0,0,1-.27-0.27,1.89,1.89,0,0,0-1.87-1.91l-1.62,0a0.27,0.27,0,1,1,0-.54l1.62,0a2.43,2.43,0,0,1,2.4,2.46A0.27,0.27,0,0,1,803.89,3641Z" transform="translate(-767.85 -3610.21)"/><path class="cls-4" d="M795,3643.82a3.24,3.24,0,0,1,.07-6.47l3.24,0-0.07,6.47Z" transform="translate(-767.85 -3610.21)"/><path class="cls-4" d="M787.34,3638.21v-1.74a5.74,5.74,0,0,1-2.46-1.16l-0.23-.19,1.1-2.18,0.36,0.32a4.34,4.34,0,0,0,2.49,1c0.23,0,.61,0,0.61-0.28a1.66,1.66,0,0,0-1.21-.6c-1.18-.32-2.79-0.76-2.79-2.62a2.56,2.56,0,0,1,2.13-2.51v-1.68h2.18v1.59a6,6,0,0,1,2.27.84l0.28,0.18-1,2.17-0.35-.2a5.29,5.29,0,0,0-2.23-.74c-0.08,0-.46,0-0.46.18a1.69,1.69,0,0,0,1.19.59c1.19,0.34,2.81.81,2.81,2.71a2.67,2.67,0,0,1-2.47,2.6v1.69h-2.18Z" transform="translate(-767.85 -3610.21)"/><path class="cls-2" d="M789.14,3627v1.55a5.74,5.74,0,0,1,2.44.82l-0.72,1.5a5.64,5.64,0,0,0-2.42-.79c-0.5,0-.83.18-0.83,0.55,0,1.31,4,.56,4,3.3,0,1.34-1,2.12-2.47,2.28v1.63h-1.43v-1.68a5.45,5.45,0,0,1-2.59-1.14l0.75-1.48a4.72,4.72,0,0,0,2.74,1.14c0.61,0,1-.23,1-0.66,0-1.34-4-.54-4-3.22a2.28,2.28,0,0,1,2.13-2.21V3627h1.43m0.75-.75H787V3628a2.9,2.9,0,0,0-2.13,2.78,2.52,2.52,0,0,0,.67,1.8l-0.31.61-0.75,1.48-0.27.53,0.46,0.38a6.06,6.06,0,0,0,2.32,1.17v1.82h2.93v-1.76a3,3,0,0,0,2.47-2.91,2.58,2.58,0,0,0-1.08-2.2l0.26-.53,0.72-1.5,0.29-.59-0.55-.36a6.27,6.27,0,0,0-2.1-.83v-1.66h0Zm-1.53,7.67a3.64,3.64,0,0,1-.86-0.24l0.4,0.11,0.46,0.13h0Z" transform="translate(-767.85 -3610.21)"/></svg>