<?xml version="1.0" encoding="utf-8"?>
<!-- Generator: Adobe Illustrator 19.2.1, SVG Export Plug-In . SVG Version: 6.00 Build 0)  -->
<svg version="1.1" id="Layer_1" xmlns="http://www.w3.org/2000/svg" xmlns:xlink="http://www.w3.org/1999/xlink" x="0px" y="0px"
	 viewBox="0 0 17 16.9" style="enable-background:new 0 0 17 16.9;" xml:space="preserve">
<style type="text/css">
	.st0{fill:#555555;}
	.st1{opacity:0.95;fill:#FFFFFF;enable-background:new    ;}
	.st2{fill:#FFFFFF;}
</style>
<title>icon-savings</title>
<rect x="0.6" y="3" class="st0" width="10.2" height="12.8"/>
<rect class="st0" width="11.4" height="2.5"/>
<polyline class="st1" points="1.3,13.9 1.3,5 10.4,5 "/>
<path class="st2" d="M4.9,13.2v-1.1c-0.6-0.1-1.1-0.4-1.6-0.8l-0.2-0.2L4,9.5l0.4,0.3c0.4,0.4,1,0.6,1.5,0.6c0.1,0,0.2,0,0.3,0
	c-0.2-0.1-0.5-0.2-0.7-0.3C4.7,9.9,3.5,9.6,3.5,8.3c0-0.8,0.6-1.5,1.4-1.7V5.4h1.7v1C7.1,6.6,7.6,6.8,8,7l0.3,0.2L7.5,8.9L7.1,8.7
	C6.7,8.4,6.2,8.2,5.8,8.2c-0.1,0-0.1,0-0.2,0l0.7,0.2C7,8.6,8.2,9,8.2,10.3c0,0.9-0.7,1.7-1.6,1.8v1.1L4.9,13.2L4.9,13.2z"/>
<path class="st0" d="M6.2,5.8v1C6.8,6.9,7.3,7,7.8,7.3l-0.5,1c-0.5-0.3-1-0.5-1.6-0.5C5.4,7.8,5.2,8,5.2,8.2c0,0.9,2.6,0.4,2.6,2.1
	c0,0.8-0.8,1.5-1.6,1.5v1.1H5.3v-1.1c-0.6-0.1-1.2-0.3-1.7-0.7l0.5-1c0.5,0.4,1.1,0.7,1.8,0.7c0.4,0,0.6-0.1,0.6-0.4
	c0-0.9-2.6-0.4-2.6-2.1c0-0.8,0.6-1.4,1.4-1.4v-1L6.2,5.8 M6.9,5.1H4.5v1.2c-0.8,0.3-1.4,1.1-1.4,2c0,0.4,0.1,0.9,0.4,1.2L3.4,9.8
	l-0.5,1l-0.3,0.5l0.5,0.4C3.5,12,4,12.3,4.5,12.4v1.2h2.4v-1.2c0.9-0.2,1.6-1.1,1.6-2.1c0-0.6-0.2-1.1-0.6-1.5L8,8.7l0.5-1l0.3-0.6
	L8.2,6.8C7.8,6.5,7.4,6.3,7,6.2L6.9,5.1L6.9,5.1L6.9,5.1z"/>
<path class="st0" d="M17,14.5c0-1.4-1.1-2.5-2.4-2.5h-2.1l0,0H10c-1.4,0-2.5,1.1-2.5,2.4s1.1,2.5,2.4,2.5h2.4l0,0h2.2
	C15.9,16.9,17,15.9,17,14.5L17,14.5z M10,16.5c-1.2,0-2.1-0.9-2.1-2.1s0.9-2.1,2.1-2.1h2.1v4.2H10z M15.8,14.6
	c-0.1,0-0.2-0.1-0.2-0.2c0,0,0,0,0,0c0-0.7-0.5-1.2-1.2-1.2h-1c-0.1,0-0.2-0.1-0.1-0.2c0-0.1,0.1-0.1,0.1-0.1h1
	c0.9,0,1.6,0.7,1.6,1.6c0,0.1,0,0.2-0.1,0.2C15.9,14.7,15.8,14.7,15.8,14.6L15.8,14.6z"/>
<path class="st1" d="M10,16.5c-1.2,0-2.1-0.9-2.1-2.1s0.9-2.1,2.1-2.1h2.1v4.2H10z"/>
</svg>
