<?xml version="1.0" encoding="iso-8859-1"?>
<!-- Generator: Adobe Illustrator 16.0.0, SVG Export Plug-In . SVG Version: 6.00 Build 0)  -->
<!DOCTYPE svg PUBLIC "-//W3C//DTD SVG 1.1//EN" "http://www.w3.org/Graphics/SVG/1.1/DTD/svg11.dtd">
<svg xmlns="http://www.w3.org/2000/svg" xmlns:xlink="http://www.w3.org/1999/xlink" version="1.1" id="Capa_1" x="0px" y="0px" width="512px" height="512px" viewBox="0 0 75.695 75.695" style="enable-background:new 0 0 75.695 75.695;" xml:space="preserve">
<g>
	<path d="M75.695,37.846c0,20.869-16.98,37.85-37.848,37.85C16.981,75.695,0,58.715,0,37.846C0,16.977,16.981,0,37.848,0   c7.628,0,15.055,2.331,21.31,6.592l5.816-5.817l4.679,17.946l-17.949-4.678l4.069-4.072c-5.319-3.422-11.538-5.3-17.929-5.3   c-18.294,0-33.176,14.882-33.176,33.174c0,18.294,14.882,33.178,33.176,33.178c18.293,0,33.175-14.884,33.175-33.178H75.695z    M28.429,38.191c-3.186,2.243-5.358,4.178-6.511,5.811c-1.154,1.629-1.734,3.591-1.734,5.881v0.007h17.044v-4.327H26.29   l0.017-0.036c0.827-1.152,2.363-2.445,4.616-3.874c2.432-1.556,4.092-2.954,4.984-4.197c0.883-1.25,1.322-2.822,1.322-4.716   c0-2.314-0.776-4.199-2.327-5.662c-1.574-1.464-3.578-2.193-6.04-2.193c-2.637,0-4.718,0.793-6.212,2.381   c-1.502,1.593-2.213,3.737-2.135,6.454h4.816c-0.046-1.46,0.246-2.606,0.876-3.455C26.839,29.42,27.71,29,28.83,29   c1.043,0,1.896,0.339,2.532,1.016c0.645,0.673,0.959,1.561,0.959,2.672c0,1.021-0.292,1.939-0.874,2.773   C30.869,36.285,29.864,37.201,28.429,38.191z M48.587,49.888v-5.507h-9.89v-2.126v-2.121l9.237-15.242h2.746h2.744V40.48h2.812   v3.905h-2.812v5.506L48.587,49.888L48.587,49.888z M48.587,40.476V30.062l-6.063,10.071l-0.205,0.342H48.587z M39.379,8.508h-2.336   v4.683h2.336V8.508z M39.379,61.58h-2.336v4.683h2.336V61.58z M67.086,38.553v-2.336h-4.685v2.336H67.086z M14.015,38.553v-2.336   H9.334v2.336H14.015z" fill="#D80027"/>
</g>
<g>
</g>
<g>
</g>
<g>
</g>
<g>
</g>
<g>
</g>
<g>
</g>
<g>
</g>
<g>
</g>
<g>
</g>
<g>
</g>
<g>
</g>
<g>
</g>
<g>
</g>
<g>
</g>
<g>
</g>
</svg>
