<?xml version="1.0" encoding="utf-8"?>
<!-- Generator: Adobe Illustrator 19.2.1, SVG Export Plug-In . SVG Version: 6.00 Build 0)  -->
<svg version="1.1" id="Layer_1" xmlns="http://www.w3.org/2000/svg" xmlns:xlink="http://www.w3.org/1999/xlink" x="0px" y="0px"
	 viewBox="0 0 18 15.8" style="enable-background:new 0 0 18 15.8;" xml:space="preserve">
<style type="text/css">
	.st0{fill:#555555;}
</style>
<title>icon-script</title>
<path class="st0" d="M17.6,0H0.4C0.2,0,0,0.2,0,0.4c0,0,0,0,0,0v12c0,0.2,0.2,0.4,0.4,0.4c0,0,0,0,0,0h4.9v2.6
	c0,0.2,0.1,0.3,0.2,0.4h0.1c0.1,0,0.2,0,0.3-0.1l2.9-2.9h8.8c0.2,0,0.4-0.2,0.4-0.4c0,0,0,0,0,0v-12C18,0.2,17.8,0,17.6,0
	C17.6,0,17.6,0,17.6,0z M4.1,3.8h6.8c0.2,0,0.3,0.2,0.3,0.4c0,0.2-0.2,0.3-0.3,0.3H4.1c-0.2,0-0.4-0.1-0.4-0.3S3.8,3.8,4,3.8
	C4.1,3.8,4.1,3.8,4.1,3.8z M13.9,9H4.1c-0.2,0-0.4-0.1-0.4-0.3S3.8,8.3,4,8.3c0,0,0.1,0,0.1,0h9.8c0.2,0.1,0.3,0.3,0.2,0.5
	C14.1,8.9,14,9,13.9,9L13.9,9z M13.9,6.8H4.1c-0.2,0-0.4-0.1-0.4-0.3S3.8,6.1,4,6c0,0,0.1,0,0.1,0h9.8c0.2,0,0.3,0.2,0.3,0.4
	C14.2,6.6,14,6.8,13.9,6.8L13.9,6.8z"/>
</svg>
